<svg width="100" height="100" viewBox="0 0 100 100" fill="none" xmlns="http://www.w3.org/2000/svg">
<path fill-rule="evenodd" clip-rule="evenodd" d="M60 0C78.8562 0 88.2847 -0.000442505 94.1426 5.85742C100 11.7153 100 21.1438 100 40V60C100 78.8562 100 88.2847 94.1426 94.1426C88.2847 100 78.8562 100 60 100H40C21.1438 100 11.7153 100 5.85742 94.1426C-0.000442505 88.2847 0 78.8562 0 60V40C0 21.1438 -0.000442505 11.7153 5.85742 5.85742C11.7153 -0.000442505 21.1438 0 40 0H60ZM83.1816 33.3184C81.4243 31.561 78.5757 31.561 76.8184 33.3184L38.75 71.3867L23.1816 55.8184C21.4243 54.061 18.5757 54.061 16.8184 55.8184C15.061 57.5757 15.061 60.4243 16.8184 62.1816L35.5684 80.9316C37.3257 82.689 40.1743 82.689 41.9316 80.9316L83.1816 39.6816C84.939 37.9243 84.939 35.0757 83.1816 33.3184ZM83.1816 14.3184C81.4243 12.561 78.5757 12.561 76.8184 14.3184L38.75 52.3867L23.1816 36.8184C21.4243 35.061 18.5757 35.061 16.8184 36.8184C15.061 38.5757 15.061 41.4243 16.8184 43.1816L35.5684 61.9316C37.3257 63.689 40.1743 63.689 41.9316 61.9316L83.1816 20.6816C84.939 18.9243 84.939 16.0757 83.1816 14.3184Z" fill="#4BEAA8"/>
</svg>
